<svg viewBox="20 15 280 300" width="260" height="280" xmlns="http://www.w3.org/2000/svg"><path stroke="#000" stroke-width="4" d="M46.377 143.65c-.848-.489-1.695-.979-2.941-2.029-5.417-3.2-10.096-2.37-14.228 3.214-10.908 14.741-8.142 39.309 11.014 48.334 9.065 4.27 18.608 5.194 28.294 2.99 20.228-4.601 34.155-17.122 43.375-35.329 1.77-3.495 3.524-6.998 5.33-10.587 1.421 1.163 1.104 2.427.841 3.454-3.513 13.721-7.003 27.489-14.122 39.901-7.046 12.286-17.862 17.142-32.007 15.297-9.051-1.18-18.027-3.482-27.282-2.43-8.916 1.013-15.699 5.371-19.92 13.292-6.224 11.68-.027 25.151 12.551 27.633 4.564.901 7.944-1.32 8.26-5.412-.857-.604-1.557.082-2.331.248-5.659 1.217-9.766-1.248-11.473-6.857-1.483-4.872.299-8.336 5.62-10.686 3.738-1.651 7.607-2.332 11.687-1.354 7.117 1.705 14.2 3.612 21.386 4.958 16.385 3.068 31.254.713 42.453-13.125 10.12-12.504 14.759-27.436 18.556-42.688 1.708-6.863 3.05-13.816 4.771-21.701 1.361 2.878 1.08 4.746.957 6.527-.739 10.792-2.458 21.464-4.044 32.154-3.127 21.088-12.111 38.523-30.379 50.601-6.239 4.125-12.052 9.011-16.617 15.05-6.824 9.028-11.279 18.841-8.917 30.6 2.664 13.258 14.712 21.965 26.393 19.049 11.444-2.856 18.655-15.516 14.414-25.384-1.461-3.4-3.797-5.477-7.823-4.488-4.475 1.099-6.29 3.583-5.756 8.147 1.093-.569 2.079-1.158 3.125-1.606 1.172-.502 2.078-1.781 3.598-1.313 1.896 4.458-.779 10.993-5.351 12.948l1.043-2.243c-8.233 4.498-13.688 1.873-15.563-7.403-1.373-6.796 1.031-12.403 5.647-17.271 5.495-5.797 12.809-8.931 19.337-13.212 21.149-13.871 34.31-32.308 35.519-58.536.569-12.331.34-24.64.771-36.95.06-1.728-.727-3.97 2.338-5.274.439 8.532 1.063 16.619 1.216 24.715.181 9.669 1.073 19.294 2.767 28.753 3.156 17.624 13.517 30.84 27.334 41.612 6.72 5.239 14.068 9.488 21.503 13.622 8.141 4.527 13.194 11.175 12.896 20.915-.171 5.591-3.527 10.54-7.349 11.423-3.818.882-9.99-3.066-12.256-7.811-.712-1.491-1.79-2.936-.795-4.663.476-.825 1.638-1.111 2.155-.534 1.131 1.263 3.504.683 3.648 3.785.164 3.534 3.174 5.309 7.095 4.506-.048-2.998-2.675-2.402-3.902-3.483.192-5.866-4.002-10.53-9.367-10.459-4.652.062-8.126 5.134-7.501 10.952 1.081 10.073 8.495 17.858 18.926 19.874 6.95 1.343 15.718-4.007 20.175-12.111 6.969-12.671 3.434-24.142-4.045-35.041-6.146-8.955-15.032-15.034-23.551-21.442-11.074-8.331-19.366-18.695-23.755-31.982-4.832-14.623-6.999-29.763-8.504-45.002-.235-2.381-1.406-5.062.706-8.596.826 3.47 1.395 5.936 2 8.393 4.181 16.982 8.113 34.065 17.841 49.016 8.706 13.381 20.675 20.755 37.063 20.55 8.967-.112 17.439-2.375 25.975-4.569 6.843-1.759 13.711-3.077 20.562-.211 5.001 2.092 7.185 6.177 5.691 10.173-2.176 5.821-7.655 8.905-12.791 7.067-1.147-.41-2.176-1.18-2.999.227-.73 1.248.08 2.235.932 3.071 1.511 1.48 3.408 1.965 5.471 2.082 7.681.437 15.621-5.812 17.407-13.74 2.675-11.88-6.283-23.81-19.728-26.763-8.301-1.823-16.237.061-24.209 1.641-19.089 3.782-30.484-.387-40.038-15.548-7.801-12.379-11.772-26.39-16.058-40.224-.233-.755-.975-1.972.983-2.485 2.833 5.94 6.298 11.561 9.924 17.085 12.79 19.483 30.254 30.858 54.132 29.722 13.134-.625 22.965-7.811 27.415-20.076 4.217-11.619 2.563-23.009-7.365-32.609-.912-.637-1.824-1.274-3.204-2.407-2.56-2.011-5.422-2.58-8.444-1.396-6.861 2.688-13.611 13.887-12.566 21.132.485 3.364 2.121 6.833 5.044 8.275 4.318 2.13 8.813-1.474 9.155-6.837.211-3.312-.119-6.658.055-9.975.098-1.877.905-3.66 3.124-3.966 1.962-.27 3.014 1.143 3.939 2.568 6.886 10.602-.312 25.321-12.872 26.2-16.651 1.164-28.98-7.057-39.643-18.631-7.969-8.651-9.746-18.62-5.849-29.67 2.493-7.066 4.952-14.143 7.415-21.219 8.411-24.163 3.544-45.553-14.745-63.158-26.374-25.387-73.629-25.837-100.664-1.182-17.023 15.524-24.119 34.853-18.766 57.723 1.927 8.232 5.285 16.122 7.802 24.226 1.873 6.029 3.694 12.079 2.254 18.584-4.23 19.102-29.116 36.677-48.545 34.183-12.315-1.581-20.539-15.701-15.241-26.192 1.006-1.992 2.249-4.038 4.859-3.453 2.669.598 3.612 2.848 3.481 5.377-.145 2.814-.746 5.607-.836 8.418-.121 3.751 1.641 6.287 5.344 7.26 1.398-.829 1.594-2.379 3.193-3.079 5.222-2.286 7.038-7.233 4.977-12.803-1.46-3.948-3.601-7.507-7.397-10.332Z" style="fill:#fff;paint-order:stroke"/><path d="M46.519 143.792c1.42 3.552 3.769 6.492 4.323 10.237.48 3.244.154 6.147-2.081 8.748-1.731-1.072-.804-2.219-.585-3.218.745-3.401.277-6.625-1.322-9.684-3.364-6.433-9.822-7.375-14.696-1.99-5.726 6.326-4.852 14.134-3.297 21.353 2.678 12.434 13.339 20.369 26.127 20.621 22.42.442 38.247-11.351 51.483-27.878 1.663-2.076 3.144-4.296 4.749-6.419.279-.371.753-.594 1.407-1.09 1.058 1.991-.353 3.275-1.125 4.434-11.862 17.806-27.386 30.51-49.248 33.213-11.944 1.476-23.221-1.2-30.715-11.563-6.745-9.328-8.144-19.961-3.741-30.78 2.84-6.978 7.591-9.078 15.67-7.707a30 30 0 0 1 3.051 1.723m76.979-48.057c4.913 8.859 3.309 17.614-3.841 22.445-6.441 4.352-16.097 3.184-20.977-2.536-6.072-7.119-5.115-17.02 2.232-23.078 7.151-5.896 16.265-4.729 22.586 3.169m-13.831-3.37c-10.661 2.369-15.412 13.042-9.132 20.511 3.925 4.668 9.817 6.089 15.216 3.671 5.254-2.353 8.54-8.152 7.525-13.279-1.311-6.625-5.701-10.391-13.609-10.903m76.258 1.991c6.273-5.777 11.713-6.911 17.903-3.963 6.179 2.943 9.745 9.123 9.357 16.217-.32 5.853-4.51 11.142-10.491 13.245-6.532 2.296-13.17.393-17.454-5.003-4.704-5.927-4.555-12.703.685-20.496m1.717 18.425c1.12.987 2.14 2.127 3.377 2.935 4.392 2.868 9.508 2.68 13.964-.699 3.798-2.88 6.156-6.738 5.105-11.647-1.199-5.596-4.484-9.622-10.347-10.94-5.134-1.155-9.256.787-12.204 4.865-3.446 4.767-3.628 9.849.105 15.486m-56.385 120.826c3.22-4.199 6.215-8.124 9.21-12.049-8.086 19.134-24.922 29.039-41.32 39.411 1.523-3.228 4.402-5.046 7.162-6.968 8.743-6.092 17.55-12.102 24.948-20.394m39.357-8.59c.143-.348.364-.558.37-.552 5.999 5.989 10.598 13.225 16.907 18.959-7.335-4.578-13.02-10.704-17.277-18.407m35.873 32.416c-.904-2.008.323-1.945 1.22-1.415 7.618 4.504 13.53 10.303 14.397 19.78-3.019-7.877-8.44-13.684-15.617-18.365"/></svg>