<svg width="64px" height="64px" viewBox="0 0 64 64" xmlns="http://www.w3.org/2000/svg" fill="#000000" stroke="white">
  <g id="SVGRepo_iconCarrier"> 
    <path stroke-width="2" d="M32,6c-7.7,0-14,6.3-14,14s6.3,14,14,14s14-6.3,14-14S39.7,6,32,6z M32,30c-5,0-9-4-9-9s4-9,9-9s9,4,9,9 S37,30,32,30z"></path>
    <path stroke-width="2"  d="M32,36c-9.4,0-28,4.7-28,14v8c0,1.7,1.3,3,3,3h50c1.7,0,3-1.3,3-3v-8C60,40.7,41.4,36,32,36z M55,55H9v-5 c0-5,13.3-9,23-9s23,4,23,9V55z"></path>
    <path stroke-width="2"  d="M48.6,35.7c0.3,0,0.7-0.1,1-0.2c7.3-2.8,9.7-11.1,4.8-17c-1.7-2-4.2-3.3-7.1-3.8c0.3,1,0.5,2,0.5,3 c0,5.3-3,10-7.4,12.3c-0.2,0.1-0.3,0.2-0.5,0.3C43.8,32.2,47,34.2,48.6,35.7z"></path>
    <path stroke-width="2"  d="M51.1,37.3c-1.2-0.6-2.6-1.2-4.1-1.7c-0.5,0.3-1.1,0.6-1.6,0.8c3.3,1.3,6.7,3.1,9,5.7c0.6,0.7,1.1,1.4,1.5,2.2 c0.4-0.6,0.6-1.3,0.6-2v-1C57.5,39.9,54.8,38.2,51.1,37.3z"></path>
    <path stroke-width="2"  d="M21.7,20.3c0-1,0.2-2,0.5-3c-2.9,0.5-5.4,1.8-7.1,3.8c-4.8,5.8-2.5,14.2,4.8,17c0.3,0.1,0.7,0.2,1,0.2 c1.6-1.5,4.8-3.5,7.3-4.7c-0.2-0.1-0.3-0.2-0.5-0.3C24.7,30.3,21.7,25.6,21.7,20.3z"></path>
    <path stroke-width="2"  d="M17,35.6c-1.5,0.5-2.9,1.1-4.1,1.7c-3.7,0.9-6.4,2.6-6.4,4.8v1c0,0.7,0.2,1.4,0.6,2c0.4-0.8,0.9-1.5,1.5-2.2 C10.4,38.7,13.7,36.9,17,35.6z"></path>
  </g>
</svg>
